<?xml version="1.0" encoding="UTF-8"?>
<svg id="Layer_1" data-name="Layer 1" xmlns="http://www.w3.org/2000/svg" viewBox="0 0 2960 500">
  <defs>
    <style>
      .cls-1 {
        fill: #fff;
      }

      .cls-2 {
        fill: #22c55e;
      }
    </style>
  </defs>
  <polygon class="cls-1" points="57.66 459 248.13 41 329.35 41 397.64 192.46 344.27 245.5 288.12 119.5 140.38 459 57.66 459"/>
  <polygon class="cls-1" points="435.64 459 386.38 346.15 438.74 281.37 519.81 459 435.64 459"/>
  <path class="cls-2" d="M252.12,253.84l-24.47,61.42,87.04,95.86s150.42-229.81,309.38-325.45c-132.59,14.92-314.85,229.6-314.85,229.6l-57.1-61.43Z"/>
  <g>
    <path class="cls-1" d="M912.78,451.76l-31.29-83.43h-174.09l-31.28,83.43h-52.05l141.37-361.8h58.01l141.38,361.8h-52.05ZM866.09,327.06l-71.64-190.98-71.64,190.98h143.28Z"/>
    <path class="cls-1" d="M1166.62,441.28c-17.39,11.07-39.14,17.58-60.05,17.69-38.58.2-74.28-21.43-74.28-76.64v-151.68h-51.17v-28.41l48.07-7.97h3.1v-74.32h44.2v74.32h78.29v36.39h-78.29v151.68c0,28.25,18.61,36.94,39.68,36.83,13.49-.07,27.94-3.71,39.19-8.07l11.26,30.18Z"/>
    <path class="cls-1" d="M1396.09,441.28c-17.39,11.07-39.14,17.58-60.05,17.69-38.58.2-74.28-21.43-74.28-76.64v-151.68h-51.17v-28.41l48.07-7.97h3.1v-74.32h44.2v74.32h78.29v36.39h-78.29v151.68c0,28.25,18.61,36.94,39.68,36.83,13.49-.07,27.94-3.71,39.19-8.07l11.26,30.18Z"/>
    <path class="cls-1" d="M1565.88,186.11c80.74,0,120.08,60.72,120.25,135.95.01,3.77-.12,7.51-.36,11.21h-198.17c.14,1.66.3,3.32.49,4.96,5.24,46.85,34.89,79.01,79.14,79.01,27.63,0,55.92-7.97,84.76-23.92l11.25,30.37c-30.18,23.29-65.97,35.32-97.35,35.32-75.25,0-124.91-60.99-124.91-136.45-.01-75.99,49.66-136.98,124.9-136.45h0ZM1489.41,296.87h150.43c-6.1-41.61-28.85-69-72.62-69-41.8-.02-70.1,27.64-77.81,69Z"/>
    <path class="cls-1" d="M1978.53,283.27v168.49h-44.2v-168.49c0-38.05-23-55.89-52.91-55.89-24.93,0-57.63,12.21-84.42,36.05v188.34h-44.21V193.34h44.21v32.66c28.54-27.32,63.62-39.9,93.22-39.9,47.11,0,88.31,31.13,88.31,97.17Z"/>
    <path class="cls-1" d="M2292.58,451.77h-44.2v-33.58c-27.25,28.44-59.36,40.81-89.25,40.81-65.22,0-111.64-59.66-111.67-136.45.03-76.64,45.74-136.93,113.95-136.45,28.56,0,61.24,13.87,86.97,40.79V89.97h44.2v361.8ZM2163.05,417.24c26.16,0,59.9-13.94,85.33-40.87v-107.63c-25.69-27.02-58.26-40.86-86.79-40.87-42.02,0-68.41,38.7-67.95,94.68-.45,56.2,25.37,94.68,69.41,94.69h0Z"/>
    <path class="cls-1" d="M2491.56,186.11c80.74,0,120.08,60.72,120.25,135.95.01,3.77-.12,7.51-.36,11.21h-198.17c.14,1.66.3,3.32.49,4.96,5.24,46.85,34.89,79.01,79.14,79.01,27.63,0,55.92-7.97,84.76-23.92l11.25,30.37c-30.18,23.29-65.97,35.32-97.35,35.32-75.25,0-124.91-60.99-124.91-136.45-.01-75.99,49.66-136.98,124.9-136.45h0ZM2415.09,296.87h150.43c-6.1-41.61-28.85-69-72.62-69-41.8-.02-70.1,27.64-77.81,69Z"/>
    <path class="cls-1" d="M2902.34,451.76h-51.04l-78.03-102.3-74.62,102.3h-50.55l100.46-134.78-94.25-123.65h50.95s71.82,94.1,71.82,94.1l68.61-94.11h50.45s-94.34,126.59-94.34,126.59l100.54,131.85Z"/>
  </g>
</svg>